<mxfile host="app.diagrams.net" modified="2022-02-18T09:53:42.120Z" agent="5.0 (Macintosh; Intel Mac OS X 10_15_7) AppleWebKit/537.36 (KHTML, like Gecko) Chrome/98.0.4758.102 Safari/537.36" etag="Nb6WyGVU8fM59OQiYZUQ" version="16.5.6" type="github">
  <diagram id="l6Cf_Bb3H-H3j1KYLsGB" name="第 1 页">
    <mxGraphModel dx="847" dy="545" grid="1" gridSize="10" guides="1" tooltips="1" connect="1" arrows="1" fold="1" page="1" pageScale="1" pageWidth="827" pageHeight="1169" background="#F1FAEE" math="0" shadow="0">
      <root>
        <mxCell id="0" />
        <mxCell id="1" parent="0" />
        <mxCell id="74HCeG4kj2c1WeJ-NwB6-1" value="" style="shape=cylinder3;whiteSpace=wrap;html=1;boundedLbl=1;backgroundOutline=1;size=15;fillColor=#A8DADC;strokeColor=#457B9D;fontColor=#1D3557;" vertex="1" parent="1">
          <mxGeometry x="80" y="200" width="80" height="70" as="geometry" />
        </mxCell>
        <mxCell id="74HCeG4kj2c1WeJ-NwB6-17" style="edgeStyle=orthogonalEdgeStyle;rounded=0;orthogonalLoop=1;jettySize=auto;html=1;entryX=0;entryY=0.5;entryDx=0;entryDy=0;dashed=1;labelBackgroundColor=#F1FAEE;strokeColor=#457B9D;fontColor=#1D3557;" edge="1" parent="1" source="74HCeG4kj2c1WeJ-NwB6-2" target="74HCeG4kj2c1WeJ-NwB6-5">
          <mxGeometry relative="1" as="geometry">
            <Array as="points">
              <mxPoint x="280" y="305" />
            </Array>
          </mxGeometry>
        </mxCell>
        <mxCell id="74HCeG4kj2c1WeJ-NwB6-2" value="Backend" style="rounded=1;whiteSpace=wrap;html=1;fillColor=#A8DADC;strokeColor=#457B9D;fontColor=#1D3557;" vertex="1" parent="1">
          <mxGeometry x="230" y="210" width="100" height="50" as="geometry" />
        </mxCell>
        <mxCell id="74HCeG4kj2c1WeJ-NwB6-20" style="edgeStyle=orthogonalEdgeStyle;rounded=0;orthogonalLoop=1;jettySize=auto;html=1;entryX=1;entryY=0.5;entryDx=0;entryDy=0;dashed=1;fontSize=10;labelBackgroundColor=#F1FAEE;strokeColor=#457B9D;fontColor=#1D3557;" edge="1" parent="1" source="74HCeG4kj2c1WeJ-NwB6-4" target="74HCeG4kj2c1WeJ-NwB6-5">
          <mxGeometry relative="1" as="geometry">
            <Array as="points">
              <mxPoint x="620" y="305" />
            </Array>
          </mxGeometry>
        </mxCell>
        <mxCell id="74HCeG4kj2c1WeJ-NwB6-4" value="&lt;b&gt;Provider&lt;/b&gt;" style="rounded=1;whiteSpace=wrap;html=1;fillColor=#A8DADC;strokeColor=#457B9D;fontColor=#1D3557;" vertex="1" parent="1">
          <mxGeometry x="570" y="210" width="100" height="50" as="geometry" />
        </mxCell>
        <mxCell id="74HCeG4kj2c1WeJ-NwB6-8" style="edgeStyle=orthogonalEdgeStyle;rounded=0;orthogonalLoop=1;jettySize=auto;html=1;entryX=1;entryY=0.5;entryDx=0;entryDy=0;dashed=1;labelBackgroundColor=#F1FAEE;strokeColor=#457B9D;fontColor=#1D3557;" edge="1" parent="1" source="74HCeG4kj2c1WeJ-NwB6-5" target="74HCeG4kj2c1WeJ-NwB6-2">
          <mxGeometry relative="1" as="geometry">
            <Array as="points">
              <mxPoint x="460" y="235" />
            </Array>
          </mxGeometry>
        </mxCell>
        <mxCell id="74HCeG4kj2c1WeJ-NwB6-9" style="edgeStyle=orthogonalEdgeStyle;rounded=0;orthogonalLoop=1;jettySize=auto;html=1;entryX=0;entryY=0.5;entryDx=0;entryDy=0;dashed=1;labelBackgroundColor=#F1FAEE;strokeColor=#457B9D;fontColor=#1D3557;" edge="1" parent="1" source="74HCeG4kj2c1WeJ-NwB6-5" target="74HCeG4kj2c1WeJ-NwB6-4">
          <mxGeometry relative="1" as="geometry">
            <Array as="points">
              <mxPoint x="460" y="235" />
            </Array>
          </mxGeometry>
        </mxCell>
        <mxCell id="74HCeG4kj2c1WeJ-NwB6-11" style="edgeStyle=orthogonalEdgeStyle;rounded=0;orthogonalLoop=1;jettySize=auto;html=1;entryX=0;entryY=0.5;entryDx=0;entryDy=0;dashed=1;labelBackgroundColor=#F1FAEE;strokeColor=#457B9D;fontColor=#1D3557;" edge="1" parent="1" source="74HCeG4kj2c1WeJ-NwB6-5" target="74HCeG4kj2c1WeJ-NwB6-7">
          <mxGeometry relative="1" as="geometry">
            <Array as="points">
              <mxPoint x="460" y="375" />
            </Array>
          </mxGeometry>
        </mxCell>
        <mxCell id="74HCeG4kj2c1WeJ-NwB6-22" style="edgeStyle=orthogonalEdgeStyle;rounded=0;orthogonalLoop=1;jettySize=auto;html=1;entryX=0.5;entryY=1;entryDx=0;entryDy=0;dashed=1;fontSize=10;labelBackgroundColor=#F1FAEE;strokeColor=#457B9D;fontColor=#1D3557;" edge="1" parent="1" source="74HCeG4kj2c1WeJ-NwB6-5" target="74HCeG4kj2c1WeJ-NwB6-4">
          <mxGeometry relative="1" as="geometry" />
        </mxCell>
        <mxCell id="74HCeG4kj2c1WeJ-NwB6-23" style="edgeStyle=orthogonalEdgeStyle;rounded=0;orthogonalLoop=1;jettySize=auto;html=1;dashed=1;fontSize=10;labelBackgroundColor=#F1FAEE;strokeColor=#457B9D;fontColor=#1D3557;" edge="1" parent="1" source="74HCeG4kj2c1WeJ-NwB6-5">
          <mxGeometry relative="1" as="geometry">
            <mxPoint x="620" y="350" as="targetPoint" />
          </mxGeometry>
        </mxCell>
        <mxCell id="74HCeG4kj2c1WeJ-NwB6-5" value="&lt;b&gt;Terraform&lt;/b&gt;" style="rounded=1;whiteSpace=wrap;html=1;fillColor=#A8DADC;strokeColor=#457B9D;fontColor=#1D3557;" vertex="1" parent="1">
          <mxGeometry x="410" y="280" width="100" height="50" as="geometry" />
        </mxCell>
        <mxCell id="74HCeG4kj2c1WeJ-NwB6-18" style="edgeStyle=orthogonalEdgeStyle;rounded=0;orthogonalLoop=1;jettySize=auto;html=1;entryX=0;entryY=0.5;entryDx=0;entryDy=0;dashed=1;labelBackgroundColor=#F1FAEE;strokeColor=#457B9D;fontColor=#1D3557;" edge="1" parent="1" source="74HCeG4kj2c1WeJ-NwB6-6" target="74HCeG4kj2c1WeJ-NwB6-5">
          <mxGeometry relative="1" as="geometry">
            <Array as="points">
              <mxPoint x="280" y="305" />
            </Array>
          </mxGeometry>
        </mxCell>
        <mxCell id="74HCeG4kj2c1WeJ-NwB6-6" value="HCL模版文件" style="rounded=1;whiteSpace=wrap;html=1;fillColor=#A8DADC;strokeColor=#457B9D;fontColor=#1D3557;" vertex="1" parent="1">
          <mxGeometry x="230" y="350" width="100" height="50" as="geometry" />
        </mxCell>
        <mxCell id="74HCeG4kj2c1WeJ-NwB6-21" style="edgeStyle=orthogonalEdgeStyle;rounded=0;orthogonalLoop=1;jettySize=auto;html=1;entryX=1;entryY=0.5;entryDx=0;entryDy=0;dashed=1;fontSize=10;labelBackgroundColor=#F1FAEE;strokeColor=#457B9D;fontColor=#1D3557;" edge="1" parent="1" source="74HCeG4kj2c1WeJ-NwB6-7" target="74HCeG4kj2c1WeJ-NwB6-5">
          <mxGeometry relative="1" as="geometry">
            <Array as="points">
              <mxPoint x="620" y="305" />
            </Array>
          </mxGeometry>
        </mxCell>
        <mxCell id="74HCeG4kj2c1WeJ-NwB6-7" value="&lt;b&gt;Proisioner&lt;/b&gt;" style="rounded=1;whiteSpace=wrap;html=1;fillColor=#A8DADC;strokeColor=#457B9D;fontColor=#1D3557;" vertex="1" parent="1">
          <mxGeometry x="570" y="350" width="100" height="50" as="geometry" />
        </mxCell>
        <mxCell id="74HCeG4kj2c1WeJ-NwB6-10" value="&lt;font style=&quot;font-size: 10px&quot;&gt;1.初始化&lt;/font&gt;" style="text;html=1;strokeColor=none;fillColor=none;align=center;verticalAlign=middle;whiteSpace=wrap;rounded=0;fontColor=#1D3557;" vertex="1" parent="1">
          <mxGeometry x="440" y="250" width="50" height="20" as="geometry" />
        </mxCell>
        <mxCell id="74HCeG4kj2c1WeJ-NwB6-13" value="&lt;font style=&quot;font-size: 10px&quot;&gt;1.初始化&lt;/font&gt;" style="text;html=1;strokeColor=none;fillColor=none;align=center;verticalAlign=middle;whiteSpace=wrap;rounded=0;fontColor=#1D3557;" vertex="1" parent="1">
          <mxGeometry x="435" y="350" width="50" height="20" as="geometry" />
        </mxCell>
        <mxCell id="74HCeG4kj2c1WeJ-NwB6-14" value="" style="endArrow=classic;html=1;rounded=0;dashed=1;exitX=0.988;exitY=0.702;exitDx=0;exitDy=0;exitPerimeter=0;entryX=0;entryY=0.75;entryDx=0;entryDy=0;labelBackgroundColor=#F1FAEE;strokeColor=#457B9D;fontColor=#1D3557;" edge="1" parent="1" source="74HCeG4kj2c1WeJ-NwB6-1" target="74HCeG4kj2c1WeJ-NwB6-2">
          <mxGeometry width="50" height="50" relative="1" as="geometry">
            <mxPoint x="180" y="330" as="sourcePoint" />
            <mxPoint x="230" y="280" as="targetPoint" />
          </mxGeometry>
        </mxCell>
        <mxCell id="74HCeG4kj2c1WeJ-NwB6-15" value="" style="endArrow=classic;html=1;rounded=0;dashed=1;exitX=0;exitY=0.25;exitDx=0;exitDy=0;entryX=1;entryY=0;entryDx=0;entryDy=25;entryPerimeter=0;labelBackgroundColor=#F1FAEE;strokeColor=#457B9D;fontColor=#1D3557;" edge="1" parent="1" source="74HCeG4kj2c1WeJ-NwB6-2" target="74HCeG4kj2c1WeJ-NwB6-1">
          <mxGeometry width="50" height="50" relative="1" as="geometry">
            <mxPoint x="240" y="257.5" as="sourcePoint" />
            <mxPoint x="169.03999999999996" y="259.14" as="targetPoint" />
          </mxGeometry>
        </mxCell>
        <mxCell id="74HCeG4kj2c1WeJ-NwB6-16" value="&lt;span style=&quot;font-size: 10px&quot;&gt;2.加载&lt;/span&gt;" style="text;html=1;strokeColor=none;fillColor=none;align=center;verticalAlign=middle;whiteSpace=wrap;rounded=0;fontColor=#1D3557;" vertex="1" parent="1">
          <mxGeometry x="170" y="250" width="50" height="20" as="geometry" />
        </mxCell>
        <mxCell id="74HCeG4kj2c1WeJ-NwB6-19" value="&lt;span style=&quot;color: rgb(0 , 0 , 0) ; font-family: &amp;#34;helvetica&amp;#34; ; font-style: normal ; font-weight: 400 ; letter-spacing: normal ; text-align: center ; text-indent: 0px ; text-transform: none ; word-spacing: 0px ; background-color: rgb(248 , 249 , 250) ; display: inline ; float: none&quot;&gt;&lt;font style=&quot;font-size: 9px&quot;&gt;2.加载模版和资源状态&lt;/font&gt;&lt;/span&gt;" style="text;whiteSpace=wrap;html=1;fontColor=#1D3557;" vertex="1" parent="1">
          <mxGeometry x="290" y="280" width="100" height="30" as="geometry" />
        </mxCell>
        <mxCell id="74HCeG4kj2c1WeJ-NwB6-24" value="&lt;span style=&quot;color: rgb(0 , 0 , 0) ; font-family: &amp;#34;helvetica&amp;#34; ; font-size: 10px ; font-style: normal ; font-weight: 400 ; letter-spacing: normal ; text-align: center ; text-indent: 0px ; text-transform: none ; word-spacing: 0px ; background-color: rgb(248 , 249 , 250) ; display: inline ; float: none&quot;&gt;3.请求调用，响应请求&lt;/span&gt;" style="text;whiteSpace=wrap;html=1;fontSize=10;fontColor=#1D3557;" vertex="1" parent="1">
          <mxGeometry x="530" y="280" width="110" height="30" as="geometry" />
        </mxCell>
        <mxCell id="74HCeG4kj2c1WeJ-NwB6-25" value="" style="endArrow=classic;html=1;rounded=0;dashed=1;fontSize=10;entryX=1.01;entryY=0.931;entryDx=0;entryDy=0;entryPerimeter=0;exitX=0;exitY=0;exitDx=0;exitDy=0;labelBackgroundColor=#F1FAEE;strokeColor=#457B9D;fontColor=#1D3557;" edge="1" parent="1" source="74HCeG4kj2c1WeJ-NwB6-5" target="74HCeG4kj2c1WeJ-NwB6-2">
          <mxGeometry width="50" height="50" relative="1" as="geometry">
            <mxPoint x="370" y="300" as="sourcePoint" />
            <mxPoint x="420" y="250" as="targetPoint" />
          </mxGeometry>
        </mxCell>
        <mxCell id="74HCeG4kj2c1WeJ-NwB6-26" value="&lt;div style=&quot;text-align: center&quot;&gt;&lt;span&gt;&lt;font face=&quot;helvetica&quot;&gt;4.记录状态信息&lt;/font&gt;&lt;/span&gt;&lt;/div&gt;" style="text;whiteSpace=wrap;html=1;fontSize=10;fontColor=#1D3557;" vertex="1" parent="1">
          <mxGeometry x="359" y="245" width="110" height="30" as="geometry" />
        </mxCell>
        <mxCell id="74HCeG4kj2c1WeJ-NwB6-27" value="&lt;div style=&quot;text-align: center&quot;&gt;&lt;span&gt;&lt;font face=&quot;helvetica&quot;&gt;5.持久化&lt;/font&gt;&lt;/span&gt;&lt;/div&gt;" style="text;whiteSpace=wrap;html=1;fontSize=10;fontColor=#1D3557;" vertex="1" parent="1">
          <mxGeometry x="180" y="200" width="50" height="30" as="geometry" />
        </mxCell>
      </root>
    </mxGraphModel>
  </diagram>
</mxfile>
